<?xml version="1.0" encoding="UTF-8"?>
<svg width="20px" height="18px" viewBox="0 0 20 18" version="1.1" xmlns="http://www.w3.org/2000/svg" xmlns:xlink="http://www.w3.org/1999/xlink">
    <!-- Generator: Sketch 49 (51002) - http://www.bohemiancoding.com/sketch -->
    <title>noun_1552262_cc</title>
    <desc>Created with Sketch.</desc>
    <defs></defs>
    <g id="All-Food-advisor" stroke="none" stroke-width="1" fill="none" fill-rule="evenodd">
        <g id="401_First-page" transform="translate(-125.000000, -847.000000)" fill="#4A4A4A" fill-rule="nonzero">
            <g id="Group-3" transform="translate(0.000000, 840.000000)">
                <g id="noun_1552262_cc" transform="translate(125.000000, 7.000000)">
                    <g id="Group">
                        <path d="M14.2268041,0.18 C11.4273472,0.173557046 9.02354395,2.10961664 8.51546392,4.78 L5.50515464,4.78 L4.26804124,1.5 C4.09611499,1.09214657 3.62263093,0.889003692 3.19587629,1.04 C2.99154673,1.1117344 2.8258456,1.26063012 2.73651158,1.45277595 C2.64717756,1.64492177 2.64181653,1.86395844 2.72164948,2.06 L3.75257732,4.78 L1.83505155,4.78 C0.924066392,4.78 0.18556701,5.4963444 0.18556701,6.38 L0.18556701,8.4 C0.188876005,9.01728246 0.557967582,9.57765975 1.13402062,9.84 L2.30927835,15.86 C2.52010083,17.0008113 3.54745934,17.8284444 4.74226804,17.82 L13.6701031,17.82 C14.852594,17.8143478 15.8685606,17.0042436 16.1030928,15.88 L17.1340206,10.68 C19.3869908,9.39329285 20.4775396,6.80619187 19.7993978,4.35694546 C19.1212559,1.90769905 16.8412088,0.198686478 14.2268041,0.18 Z M1.83505155,6.38 L8.45360825,6.38 C8.52050586,7.08630111 8.73072302,7.77280027 9.07216495,8.4 L1.83505155,8.4 L1.83505155,6.38 Z M14.4742268,15.56 C14.4047961,15.9390084 14.066936,16.2163135 13.6701031,16.22 L4.74226804,16.22 C4.3406226,16.217985 3.99589129,15.9421138 3.91752577,15.56 L2.84536082,10 L10.3298969,10 C11.3995875,10.9325222 12.7886034,11.4457967 14.2268041,11.44 C14.5933632,11.4374222 14.9589987,11.4039631 15.3195876,11.34 L14.4742268,15.56 Z M14.2268041,9.84 C12.5385162,9.84808726 11.01221,8.86674951 10.3622729,7.35530168 C9.71233583,5.84385386 10.0673587,4.10133784 11.2611731,2.94333787 C12.4549875,1.7853379 14.2513957,1.44096576 15.8095894,2.07140475 C17.367783,2.70184374 18.3794714,4.18236071 18.371134,5.82 C18.371134,6.88617029 17.9345005,7.90867302 17.1572879,8.66256926 C16.3800753,9.4164655 15.3259488,9.84 14.2268041,9.84 Z" id="Shape"></path>
                        <path d="M16.3917526,5.02 L15.0515464,5.02 L15.0515464,3.7 C15.0515464,3.2581722 14.6822967,2.9 14.2268041,2.9 C14.0063626,2.89444318 13.7932412,2.97694297 13.6373128,3.12819346 C13.4813845,3.27944395 13.3963332,3.48617169 13.4020619,3.7 L13.4020619,5.02 L12.0412371,5.02 C11.8207956,5.01444318 11.6076742,5.09694297 11.4517458,5.24819346 C11.2958175,5.39944395 11.2107662,5.60617169 11.2164948,5.82 C11.2164948,6.2618278 11.5857445,6.62 12.0412371,6.62 L13.4020619,6.62 L13.4020619,7.92 C13.3963332,8.13382831 13.4813845,8.34055605 13.6373128,8.49180654 C13.7932412,8.64305703 14.0063626,8.72555682 14.2268041,8.72 C14.6822967,8.72 15.0515464,8.3618278 15.0515464,7.92 L15.0515464,6.62 L16.3917526,6.62 C16.8472452,6.62 17.2164948,6.2618278 17.2164948,5.82 C17.2222235,5.60617169 17.1371722,5.39944395 16.9812439,5.24819346 C16.8253155,5.09694297 16.6121941,5.01444318 16.3917526,5.02 Z" id="Shape"></path>
                    </g>
                </g>
            </g>
        </g>
    </g>
</svg>