<?xml version="1.0" encoding="UTF-8"?>
<svg width="20px" height="19px" viewBox="0 0 20 19" version="1.1" xmlns="http://www.w3.org/2000/svg" xmlns:xlink="http://www.w3.org/1999/xlink">
    <!-- Generator: Sketch 49 (51002) - http://www.bohemiancoding.com/sketch -->
    <title>noun_1769430_cc</title>
    <desc>Created with Sketch.</desc>
    <defs></defs>
    <g id="All-Food-advisor" stroke="none" stroke-width="1" fill="none" fill-rule="evenodd">
        <g id="401_First-page" transform="translate(-27.000000, -847.000000)" fill="#EF7E5E" fill-rule="nonzero">
            <g id="Group-3" transform="translate(0.000000, 840.000000)">
                <g id="noun_1769430_cc" transform="translate(27.000000, 7.000000)">
                    <g id="Group">
                        <path d="M16.875,7.125 C16.875,6.77982204 17.154822,6.5 17.5,6.5 C17.845178,6.5 18.125,6.77982204 18.125,7.125 L18.125,16.5 C18.125,17.5355339 17.2855339,18.375 16.25,18.375 L3.75,18.375 C2.7144661,18.375 1.875,17.5355339 1.875,16.5 L1.875,7.125 C1.875,6.77982204 2.15482204,6.5 2.5,6.5 C2.84517796,6.5 3.125,6.77982204 3.125,7.125 L3.125,16.5 C3.125,16.845178 3.40482204,17.125 3.75,17.125 L16.25,17.125 C16.595178,17.125 16.875,16.845178 16.875,16.5 L16.875,7.125 Z" id="Shape"></path>
                        <path d="M8.125,17.125 C8.125,17.470178 7.84517796,17.75 7.5,17.75 C7.15482204,17.75 6.875,17.470178 6.875,17.125 L6.875,11.5 C6.875,9.77411016 8.27411016,8.375 10,8.375 C11.7258898,8.375 13.125,9.77411016 13.125,11.5 L13.125,17.125 C13.125,17.470178 12.845178,17.75 12.5,17.75 C12.154822,17.75 11.875,17.470178 11.875,17.125 L11.875,11.5 C11.875,10.4644661 11.0355339,9.625 10,9.625 C8.9644661,9.625 8.125,10.4644661 8.125,11.5 L8.125,17.125 Z" id="Shape"></path>
                        <path d="M1.03433159,8.84730568 C0.773484364,9.07337328 0.378761916,9.04517881 0.152694324,8.78433159 C-0.0733732696,8.52348436 -0.045178809,8.12876191 0.215668414,7.90269433 L8.77200524,0.487202413 C9.47674828,-0.123574886 10.5232517,-0.123574886 11.2279948,0.487202413 L19.7843316,7.90269433 C20.0451788,8.12876191 20.0733733,8.52348436 19.8473056,8.78433159 C19.6212381,9.04517881 19.2265156,9.07337328 18.9656684,8.84730568 L10.4093316,1.43181376 C10.1744172,1.22822133 9.82558276,1.22822133 9.59066841,1.43181376 L1.03433159,8.84730568 Z" id="Shape"></path>
                    </g>
                </g>
            </g>
        </g>
    </g>
</svg>