<?xml version="1.0" encoding="UTF-8"?>
<svg width="19px" height="17px" viewBox="0 0 19 17" version="1.1" xmlns="http://www.w3.org/2000/svg" xmlns:xlink="http://www.w3.org/1999/xlink">
    <!-- Generator: Sketch 49 (51002) - http://www.bohemiancoding.com/sketch -->
    <title>Shape</title>
    <desc>Created with Sketch.</desc>
    <defs></defs>
    <g id="All-Food-advisor" stroke="none" stroke-width="1" fill="none" fill-rule="evenodd">
        <g id="401_First-page" transform="translate(-219.000000, -850.000000)" fill-rule="nonzero" stroke="#606060" stroke-width="2.06659013">
            <g id="Group-3" transform="translate(0.000000, 840.000000)">
                <path d="M225.432084,11.9728031 C226.291538,11.9276587 227.15687,12.1340613 227.90314,12.5616364 C228.134994,12.6941541 228.351987,12.8500258 228.554432,13.0270623 C228.756814,12.8501748 228.973673,12.6945339 229.20515,12.5624423 C229.952424,12.1346179 230.817157,11.9285265 231.677701,11.9728025 C232.928343,12.037182 234.124673,12.635648 234.949422,13.5918136 C235.732804,14.4980373 236.142231,15.6913127 236.142231,16.9374119 C236.142231,17.9195223 235.830997,18.8946841 235.284218,19.8408998 C234.858178,20.577726 234.312053,21.2489757 233.592128,21.9727469 C232.28376,23.2852839 230.776413,24.3960406 229.138143,25.2551691 C228.773848,25.4474361 228.337609,25.4474361 227.973095,25.2563807 C226.332357,24.3957112 224.824719,23.2848257 223.516025,21.9719607 C222.796654,21.2487456 222.250607,20.5774768 221.824345,19.8398188 C221.278022,18.8933962 220.966705,17.9183873 220.966705,16.9374119 C220.966705,15.6923328 221.376975,14.4958671 222.159189,13.5926959 C222.984187,12.636152 224.180398,12.0377455 225.431234,11.9728251 L225.432084,11.9728031 Z" id="Shape"></path>
            </g>
        </g>
    </g>
</svg>