<?xml version="1.0" encoding="UTF-8"?>
<svg width="20px" height="20px" viewBox="0 0 20 20" version="1.1" xmlns="http://www.w3.org/2000/svg" xmlns:xlink="http://www.w3.org/1999/xlink">
    <!-- Generator: Sketch 49 (51002) - http://www.bohemiancoding.com/sketch -->
    <title>noun_1665004_cc</title>
    <desc>Created with Sketch.</desc>
    <defs></defs>
    <g id="All-Food-advisor" stroke="none" stroke-width="1" fill="none" fill-rule="evenodd">
        <g id="401_First-page" transform="translate(-314.000000, -847.000000)" fill="#4A4A4A" fill-rule="nonzero">
            <g id="Group-3" transform="translate(0.000000, 840.000000)">
                <g id="noun_1665004_cc" transform="translate(314.000000, 7.000000)">
                    <g id="Group">
                        <path d="M18.8118182,0.0191111111 L2.48295455,0.0191111111 C1.9375,0.0191111111 1.49340909,0.407111111 1.49340909,0.884 L1.49340909,9.61377778 C1.49340909,10.0906667 1.9375,10.4786667 2.48295455,10.4786667 L8.61295455,10.4786667 L8.61295455,11.2055556 C7.12318182,11.3502222 6.75068182,12.0124444 6.38068182,12.9802222 C6.30454545,13.0406667 5.98113636,13.0426667 5.85772727,13.0435556 C5.81795455,13.0437778 5.77977273,13.044 5.74522727,13.0446667 L5.01431818,13.0582222 L5.01431818,12.4517778 C5.01431818,11.9991111 4.63704545,11.6311111 4.17386364,11.6311111 L1.03863636,11.6311111 C0.575,11.6311111 0.198181818,11.9991111 0.198181818,12.4517778 L0.198181818,19.1588889 C0.198181818,19.612 0.575,19.9806667 1.03863636,19.9806667 L4.17386364,19.9806667 C4.63704545,19.9806667 5.01431818,19.612 5.01431818,19.1588889 L5.01431818,18.4917778 C5.02181818,18.4917778 5.03090909,18.4917778 5.03818182,18.4917778 C5.27568182,18.4917778 5.35931818,18.4997778 5.41136364,18.5277778 C5.49431818,18.5722222 5.62931818,18.7157778 5.83363636,18.9331111 L5.84840909,18.9486667 C6.45590909,19.5944444 7.3625,19.98 8.27386364,19.98 C8.30704545,19.98 8.34022727,19.9795556 8.37318182,19.9784444 L12.4025,19.8613333 C12.4175,19.8608889 12.4322727,19.8595556 12.4468182,19.8575556 C13.4540909,19.7173333 14.1054545,18.7971111 14.1475,17.456 C14.1711364,16.7184444 14.3486364,16.2817778 14.5054545,15.8962222 C14.6334091,15.5813333 14.7543182,15.284 14.7263636,14.9304444 C14.7036364,14.6417778 14.6554545,14.3924444 14.6097727,14.1508889 C14.5372727,13.7708889 14.4743182,13.4424444 14.5175,13.0208889 C14.5722727,12.4846667 14.4631818,12.0626667 14.1936364,11.7666667 C13.7522727,11.282 13.0179545,11.2702222 12.4275,11.2606667 C12.4106818,11.2604444 12.3954545,11.26 12.3786364,11.2597778 L12.3786364,10.4786667 L18.8113636,10.4786667 C19.3570455,10.4786667 19.8011364,10.0906667 19.8011364,9.61377778 L19.8011364,0.884 C19.8015909,0.407333333 19.3575,0.0191111111 18.8118182,0.0191111111 Z M4.2175,19.1591111 C4.2175,19.1813333 4.19681818,19.2017778 4.17409091,19.2017778 L1.03863636,19.2017778 C1.01590909,19.2017778 0.995227273,19.1813333 0.995227273,19.1591111 L0.995227273,12.452 C0.995227273,12.4302222 1.01590909,12.4104444 1.03863636,12.4104444 L4.17386364,12.4104444 C4.19659091,12.4104444 4.21727273,12.4302222 4.21727273,12.452 L4.21727273,13.4555556 L4.21727273,18.1028889 L4.21727273,19.1591111 L4.2175,19.1591111 Z M13.5988636,12.2848889 C13.7143182,12.4115556 13.7565909,12.6331111 13.725,12.9433333 C13.6704545,13.4757778 13.7497727,13.892 13.8265909,14.294 C13.8709091,14.5253333 13.9127273,14.7435556 13.9320455,14.9904444 C13.9456818,15.1642222 13.87,15.3504444 13.765,15.6084444 C13.6022727,16.0091111 13.3790909,16.5575556 13.3513636,17.432 C13.3215909,18.3726667 12.9497727,18.9877778 12.3547727,19.0831111 L8.34931818,19.1995556 C7.49977273,19.2246667 6.80022727,18.8095556 6.435,18.4213333 L6.42022727,18.4057778 C5.87181818,17.8224444 5.74613636,17.7124444 5.03818182,17.7124444 C5.03045455,17.7124444 5.02227273,17.7124444 5.01431818,17.7124444 L5.01431818,13.8377778 L5.76136364,13.824 C5.79318182,13.8233333 5.82727273,13.8231111 5.86295455,13.8228889 C6.22931818,13.8206667 6.91181818,13.8164444 7.12522727,13.258 C7.43795455,12.4391111 7.5975,12.0217778 8.95863636,11.9611111 C8.97159091,11.9646667 8.98818182,11.9677778 9.00227273,11.9711111 C9.0275,11.9773333 9.05363636,11.9835556 9.08136364,11.9895556 C9.115,11.9966667 9.14977273,12.0035556 9.18636364,12.0102222 C9.2175,12.0157778 9.24863636,12.0211111 9.28159091,12.0262222 C9.32045455,12.0324444 9.36113636,12.0382222 9.40272727,12.0437778 C9.43772727,12.0484444 9.4725,12.0531111 9.50909091,12.0575556 C9.55318182,12.0626667 9.59840909,12.0675556 9.64409091,12.0722222 C9.68159091,12.076 9.71840909,12.08 9.75681818,12.0833333 C9.80522727,12.0877778 9.85431818,12.0913333 9.90363636,12.0951111 C9.94113636,12.098 9.97795455,12.1008889 10.0159091,12.1035556 C10.0677273,12.1071111 10.12,12.1097778 10.1722727,12.1126667 C10.2084091,12.1144444 10.2445455,12.1168889 10.2804545,12.1184444 C10.3377273,12.1211111 10.3938636,12.1226667 10.4502273,12.1244444 C10.48,12.1253333 10.5102273,12.1266667 10.5395455,12.1273333 C10.6245455,12.1293333 10.7077273,12.1304444 10.7872727,12.1304444 C10.7881818,12.1304444 10.7890909,12.1304444 10.7895455,12.1304444 C10.8795455,12.1304444 10.9786364,12.1291111 11.0820455,12.1257778 C11.1165909,12.1248889 11.1527273,12.1222222 11.1881818,12.1206667 C11.2604545,12.1175556 11.3320455,12.1146667 11.4059091,12.1091111 C11.45,12.106 11.4925,12.1006667 11.5363636,12.0964444 C11.6031818,12.0902222 11.6697727,12.0842222 11.7352273,12.0753333 C11.78,12.0693333 11.8204545,12.0608889 11.8636364,12.0533333 C11.9140909,12.0448889 11.9668182,12.0382222 12.0145455,12.0277778 C12.1431818,12.0355556 12.2759091,12.0375556 12.4154545,12.0397778 C12.8720455,12.0471111 13.3902273,12.0555556 13.5988636,12.2848889 Z M11.5820455,11.308 C11.5329545,11.314 11.4854545,11.3204444 11.4311364,11.3253333 C11.4252273,11.3257778 11.42,11.3266667 11.4140909,11.3271111 C11.3320455,11.3342222 11.2431818,11.3391111 11.1509091,11.3428889 C11.1290909,11.3437778 11.1063636,11.3446667 11.0838636,11.3455556 C10.9888636,11.3488889 10.8906818,11.3508889 10.7872727,11.3508889 C10.6990909,11.3508889 10.6129545,11.3493333 10.5281818,11.3473333 C10.5040909,11.3466667 10.4802273,11.346 10.4565909,11.3453333 C10.3902273,11.3433333 10.3259091,11.3406667 10.2625,11.3375556 C10.2440909,11.3366667 10.2254545,11.336 10.2075,11.3351111 C10.1302273,11.3311111 10.0552273,11.3262222 9.98318182,11.3208889 C9.96545455,11.3195556 9.94886364,11.318 9.93113636,11.3166667 C9.875,11.312 9.82090909,11.3073333 9.76909091,11.3022222 C9.75068182,11.3004444 9.73204545,11.2986667 9.71454545,11.2968889 C9.59818182,11.2846667 9.49704545,11.2713333 9.41,11.2577778 L9.41,10.4786667 L11.5822727,10.4786667 L11.5822727,11.308 L11.5820455,11.308 Z M19.0047727,9.61377778 C19.0047727,9.62822222 18.94,9.69933333 18.8120455,9.69933333 L11.9806818,9.69933333 L9.01136364,9.69933333 L2.48295455,9.69933333 C2.35818182,9.69933333 2.29295455,9.63133333 2.29045455,9.61377778 L2.29045455,0.884 C2.29045455,0.869555556 2.35522727,0.798222222 2.48295455,0.798222222 L18.8118182,0.798222222 C18.9404545,0.798222222 19.0045455,0.867555556 19.0045455,0.884 L19.0045455,9.61377778 L19.0047727,9.61377778 Z" id="Shape"></path>
                        <path d="M7.58045455,4.27777778 L6.56318182,4.08577778 L6.06204545,3.19888889 C5.99227273,3.07466667 5.85840909,2.99755556 5.71340909,2.99755556 C5.56840909,2.99755556 5.43477273,3.07466667 5.36477273,3.19888889 L4.86363636,4.08577778 L3.84636364,4.27777778 C3.70409091,4.30466667 3.58795455,4.40488889 3.54295455,4.53977778 C3.49818182,4.67466667 3.53181818,4.82266667 3.63113636,4.92644444 L4.33909091,5.66644444 L4.21159091,6.67133333 C4.19363636,6.812 4.25522727,6.95111111 4.37272727,7.03444444 C4.44204545,7.08377778 4.52431818,7.10888889 4.60704545,7.10866667 C4.66431818,7.10866667 4.72181818,7.09666667 4.77590909,7.072 L5.71363636,6.64311111 L6.65227273,7.07222222 C6.78363636,7.13222222 6.93795455,7.11777778 7.05522727,7.03444444 C7.1725,6.95111111 7.23409091,6.81222222 7.21613636,6.67133333 L7.08863636,5.66622222 L7.79568182,4.92622222 C7.89477273,4.82266667 7.92818182,4.67466667 7.88363636,4.53977778 C7.83886364,4.40511111 7.72272727,4.30466667 7.58045455,4.27777778 Z M6.37954545,5.26755556 C6.29886364,5.352 6.26090909,5.46688889 6.27522727,5.58155556 L6.33704545,6.06822222 L5.88227273,5.86044444 C5.82886364,5.836 5.77113636,5.82377778 5.71340909,5.82377778 C5.65590909,5.82377778 5.59840909,5.836 5.54454545,5.86044444 L5.09090909,6.06777778 L5.15272727,5.58133333 C5.16704545,5.46666667 5.12909091,5.35177778 5.04840909,5.26711111 L4.70568182,4.90911111 L5.19795455,4.81622222 C5.31386364,4.79422222 5.41386364,4.72333333 5.47113636,4.622 L5.71340909,4.19288889 L5.95590909,4.622 C6.01272727,4.72311111 6.11295455,4.79422222 6.22909091,4.81622222 L6.72159091,4.90911111 L6.37954545,5.26755556 Z" id="Shape"></path>
                        <path d="M12.4227273,4.216 L11.405,4.024 L10.9043182,3.138 C10.8340909,3.014 10.7004545,2.93688889 10.5554545,2.93688889 C10.4104545,2.93688889 10.2768182,3.014 10.2068182,3.138 L9.70590909,4.024 L8.68931818,4.216 C8.54727273,4.24288889 8.43090909,4.34311111 8.38636364,4.478 C8.34136364,4.61266667 8.375,4.76066667 8.47386364,4.86444444 L9.18090909,5.60444444 L9.05340909,6.60955556 C9.03568182,6.75022222 9.0975,6.88911111 9.21477273,6.97266667 C9.28409091,7.022 9.36613636,7.04688889 9.44886364,7.04688889 C9.50636364,7.04688889 9.56409091,7.03488889 9.61772727,7.01022222 L10.5554545,6.58111111 L11.4943182,7.01022222 C11.6256818,7.07022222 11.78,7.05577778 11.8972727,6.97244444 C12.0145455,6.88911111 12.0763636,6.75022222 12.0586364,6.60955556 L11.9311364,5.60444444 L12.6381818,4.86444444 C12.7372727,4.76088889 12.7706818,4.61288889 12.7256818,4.478 C12.6811364,4.34311111 12.5647727,4.24288889 12.4227273,4.216 Z M11.2215909,5.20555556 C11.1411364,5.29 11.1029545,5.40488889 11.1175,5.51955556 L11.1790909,6.00622222 L10.7240909,5.79844444 C10.6706818,5.774 10.6131818,5.76177778 10.5554545,5.76177778 C10.4977273,5.76177778 10.44,5.774 10.3863636,5.79844444 L9.93295455,6.006 L9.99431818,5.51955556 C10.0090909,5.40488889 9.97068182,5.29 9.89022727,5.20555556 L9.54772727,4.84733333 L10.0395455,4.75444444 C10.1556818,4.73244444 10.2554545,4.66155556 10.3127273,4.56022222 L10.5552273,4.13155556 L10.7975,4.56022222 C10.8547727,4.66133333 10.9547727,4.73244444 11.0706818,4.75444444 L11.5636364,4.84733333 L11.2215909,5.20555556 Z" id="Shape"></path>
                        <path d="M17.4025,4.216 L16.3852273,4.024 L15.8840909,3.138 C15.8138636,3.014 15.6802273,2.93688889 15.5354545,2.93688889 C15.3902273,2.93688889 15.2568182,3.014 15.1865909,3.138 L14.6856818,4.024 L13.6684091,4.216 C13.5259091,4.24288889 13.4095455,4.34311111 13.365,4.478 C13.3204545,4.61288889 13.3538636,4.76088889 13.4529545,4.86444444 L14.1609091,5.60444444 L14.0336364,6.60933333 C14.0156818,6.75 14.0775,6.88888889 14.1945455,6.97244444 C14.2638636,7.02177778 14.3461364,7.04666667 14.4286364,7.04666667 C14.4861364,7.04666667 14.5438636,7.03466667 14.5975,7.01 L15.5352273,6.58111111 L16.4727273,7.01 C16.6040909,7.07 16.7584091,7.05555556 16.8756818,6.97244444 C16.9929545,6.88933333 17.0547727,6.75022222 17.0370455,6.60955556 L16.9109091,5.60444444 L17.6179545,4.86422222 C17.7168182,4.76066667 17.7504545,4.61266667 17.7056818,4.47777778 C17.6609091,4.34311111 17.5447727,4.24288889 17.4025,4.216 Z M16.2015909,5.20555556 C16.1209091,5.28977778 16.0829545,5.40466667 16.0972727,5.51911111 L16.1584091,6.00622222 L15.7040909,5.79844444 C15.6506818,5.774 15.5929545,5.76177778 15.5352273,5.76177778 C15.4775,5.76177778 15.4197727,5.774 15.3663636,5.79844444 L14.9127273,6.006 L14.9743182,5.51955556 C14.9888636,5.40488889 14.9506818,5.28977778 14.87,5.20533333 L14.5272727,4.84733333 L15.0197727,4.75444444 C15.1356818,4.73244444 15.2359091,4.66155556 15.2929545,4.56022222 L15.5354545,4.13155556 L15.7777273,4.56022222 C15.835,4.66133333 15.935,4.73244444 16.0511364,4.75444444 L16.5436364,4.84733333 L16.2015909,5.20555556 Z" id="Shape"></path>
                    </g>
                </g>
            </g>
        </g>
    </g>
</svg>