<?xml version="1.0" encoding="UTF-8"?>
<svg width="59px" height="59px" viewBox="0 0 59 59" version="1.1" xmlns="http://www.w3.org/2000/svg" xmlns:xlink="http://www.w3.org/1999/xlink">
    <!-- Generator: Sketch 49 (51002) - http://www.bohemiancoding.com/sketch -->
    <title>Group 20</title>
    <desc>Created with Sketch.</desc>
    <defs></defs>
    <g id="All-Food-advisor" stroke="none" stroke-width="1" fill="none" fill-rule="evenodd">
        <g id="201_Pre-log-in" transform="translate(-41.000000, -388.000000)">
            <g id="Group-20" transform="translate(42.000000, 389.000000)">
                <circle id="Oval-5-Copy-3" stroke="#FFFFFF" cx="28.5" cy="28.5" r="28.5"></circle>
                <g id="noun_1453966_cc" transform="translate(18.000000, 14.000000)" fill="#FFFFFF" fill-rule="nonzero">
                    <path d="M19.7924649,0.20535619 C19.6597305,0.0662005313 19.4807957,-0.00547964809 19.2970941,0.000326864414 L0.648638752,0.820444166 C0.428404165,0.820444166 0,0.998259457 0,1.55786896 L0,28.6217399 C0,29.2464762 0.492454619,29.338135 0.615455145,29.3569623 L17.3867449,30.9971969 C17.4069117,30.9991991 17.4267119,31 17.4468787,31 C17.6148134,31 17.7779815,30.9315234 17.9030159,30.8065837 C18.0430837,30.6668273 18.122651,30.4690061 18.122651,30.2619745 L18.122651,28.5932831 L19.3513612,28.5392476 C19.713631,28.5232297 20,28.1976656 20,27.8016226 L20,0.737751656 C20,0.536927031 19.9251994,0.344712039 19.7924649,0.20535619 Z M18.6484554,27.0928298 L1.3515446,27.8532804 L1.3515446,2.34715178 L1.3515446,2.26686196 L18.6484554,1.50621116 L18.6484554,27.0928298 Z M16.7711064,29.4546715 L11.1148593,28.9014778 L16.7711064,28.6527246 L16.7711064,29.4546715 Z M15.8694656,23.2641474 C15.8830323,23.6718034 15.5915299,24.0137859 15.2186268,24.0286025 L4.83032358,24.4386611 C4.8220735,24.4390616 4.81382345,24.4390616 4.80557337,24.4390616 C4.443487,24.4390616 4.14373452,24.1259113 4.13053439,23.7278661 C4.11696762,23.3202102 4.40847005,22.9782276 4.78155648,22.9634111 L15.169493,22.5533524 C15.5544963,22.5321287 15.8558988,22.8568919 15.8694656,23.2641474 Z M7.32477771,4.83833816 C6.14923457,4.83833816 5.22834357,6.12918197 5.22834357,7.77702508 C5.22834357,9.15003578 5.86845724,10.2721659 6.76157302,10.6094431 L6.76157302,17.960215 C6.76157302,18.2997948 7.01365844,18.575303 7.32477771,18.575303 C7.63589697,18.575303 7.8879824,18.2997948 7.8879824,17.960215 L7.8879824,10.6094431 C8.78105233,10.2721659 9.4210285,9.15003578 9.4210285,7.77702508 C9.4210285,6.12918197 8.50032085,4.83833816 7.32477771,4.83833816 Z M7.32477771,9.48573628 C7.11795306,9.48573628 6.92304519,9.35403898 6.76157302,9.14230216 C6.51952517,8.82494719 6.35475296,8.32298574 6.35475296,7.77702508 C6.35475296,6.86680699 6.80795671,6.06851412 7.32477771,6.06851412 C7.84141536,6.06851412 8.29461912,6.86680699 8.29461912,7.77702508 C8.29461912,8.32288565 8.12989275,8.82472194 7.8879824,9.14210193 C7.72651023,9.3539639 7.53160235,9.48573628 7.32477771,9.48573628 Z M14.8185902,5.31667318 L14.8185902,9.01020439 C14.8185902,9.13934883 14.7815565,9.26508946 14.7122559,9.37000682 C14.3894262,9.85900378 13.6806536,10.1162165 13.1443762,10.2301689 L13.1443762,17.5501563 C13.1443762,17.8897362 12.8921075,18.1652443 12.5811715,18.1652443 C12.2702356,18.1652443 12.0179668,17.8897362 12.0179668,17.5501563 L12.0179668,10.2312952 C11.4763957,10.1179184 10.758548,9.86058057 10.434687,9.37000687 C10.3655697,9.26508951 10.3283528,9.13934887 10.3283528,9.01020443 L10.3283528,5.31667322 C10.3283528,4.97689317 10.5806215,4.70158524 10.8915575,4.70158524 C11.2024934,4.70158524 11.4547622,4.97689317 11.4547622,5.31667322 L11.4547622,8.74050279 C11.5844028,8.82337047 11.7981484,8.91011752 12.0179668,8.97483991 L12.0179668,5.31667326 C12.0179668,4.97689321 12.2702356,4.70158529 12.5811715,4.70158529 C12.8921075,4.70158529 13.1443762,4.97689321 13.1443762,5.31667326 L13.1443762,8.97313804 C13.3581676,8.90891621 13.5652672,8.8233455 13.6921808,8.74130371 L13.6921808,5.31667326 C13.6921808,4.97689321 13.9444496,4.70158529 14.2553855,4.70158529 C14.5663214,4.70158529 14.8185902,4.97689313 14.8185902,5.31667318 Z" id="Shape"></path>
                </g>
            </g>
        </g>
    </g>
</svg>